Coordinates
version=1
nRows=26
nColumns=24
inDegrees=yes

Units are S.I. units (second, meters, Newtons, ...)
Angles are in degrees.

endheader
time	pelvis_tilt	pelvis_list	pelvis_rotation	pelvis_tx	pelvis_ty	pelvis_tz	hip_flexion_r	hip_adduction_r	hip_rotation_r	knee_angle_r	ankle_angle_r	subtalar_angle_r	mtp_angle_r	hip_flexion_l	hip_adduction_l	hip_rotation_l	knee_angle_l	ankle_angle_l	subtalar_angle_l	mtp_angle_l	lumbar_extension	lumbar_bending	lumbar_rotation
      1.09200000	     -4.10641797	      5.11840555	     -2.16066245	      0.17797283	      0.90293608	      0.31071650	     19.82483346	     -9.00764758	     -5.49341780	    -74.07897408	     -4.28499254	     11.34409794	      9.48380879	     15.01951005	      7.85966101	     -5.74270637	    -18.73784549	      9.57136025	     -4.85227139	      4.71251407	     -4.49481604	     -7.62068683	      2.70764867
      1.09616667	     -4.06430377	      4.94351812	     -2.10124962	      0.18330610	      0.90418399	      0.31049890	     20.46887809	     -8.77351903	     -5.59205575	    -73.96242698	     -3.84010289	     11.23821936	      9.33050436	     14.25740695	      7.77754751	     -5.43878532	    -18.06899338	      9.55615835	     -5.02748715	      4.69221561	     -4.54204351	     -7.41859228	      2.43334374
      1.10033333	     -4.06882749	      4.74470947	     -2.03377416	      0.18859614	      0.90529625	      0.31029464	     21.15279038	     -8.50027172	     -5.70024805	    -73.78935867	     -3.32499061	     11.05423911	      9.27240254	     13.60173015	      7.63956243	     -5.26148890	    -17.51515437	      9.56685019	     -4.99994414	      4.68312111	     -4.53642976	     -7.15958063	      2.32828406
      1.10450000	     -4.03921563	      4.53125028	     -1.95474235	      0.19391439	      0.90645141	      0.31006998	     21.76514413	     -8.21512869	     -5.83077667	    -73.52384690	     -2.83916847	     10.87015370	      9.20720352	     12.89247366	      7.49477975	     -5.02789105	    -16.92842569	      9.57010046	     -5.03228276	      4.67118448	     -4.57846913	     -6.89184971	      2.16129701
      1.10866667	     -3.99848986	      4.34371180	     -1.86872186	      0.19925461	      0.90759742	      0.30979975	     22.34838260	     -7.97149316	     -5.97014433	    -73.18900841	     -2.40259883	     10.70451184	      8.98719791	     12.13281063	      7.39865939	     -4.67490176	    -16.24914820	      9.49509570	     -5.29164362	      4.62693274	     -4.61083244	     -6.67313207	      1.83966745
      1.11283333	     -3.95145952	      4.10146676	     -1.77186850	      0.20458412	      0.90871724	      0.30955238	     22.88939599	     -7.65943646	     -6.13522839	    -72.76275819	     -1.96459538	     10.48725538	      8.88916595	     11.41343969	      7.21597888	     -4.43533389	    -15.68090562	      9.53845009	     -5.29946176	      4.60672589	     -4.66888830	     -6.36798813	      1.69945994
      1.11700000	     -3.92979543	      3.86938769	     -1.66749115	      0.20987339	      0.90973231	      0.30928893	     23.44947325	     -7.35918538	     -6.30040926	    -72.28953273	     -1.47544557	     10.25567494	      8.82845415	     10.74093204	      7.03767229	     -4.21352771	    -15.13804032	      9.52266933	     -5.29879529	      4.59216450	     -4.71212142	     -6.06185829	      1.55050324
      1.12116667	     -3.85223255	      3.63967586	     -1.55564018	      0.21523042	      0.91082271	      0.30899358	     23.91271004	     -7.07838673	     -6.49281658	    -71.72494297	     -1.10265168	     10.00796180	      8.69075136	      9.96294730	      6.87809881	     -3.89259338	    -14.50514003	      9.51417769	     -5.45420304	      4.56006224	     -4.78334976	     -5.78915295	      1.25844069
      1.12533333	     -3.83498824	      3.39921209	     -1.43266075	      0.22052609	      0.91173673	      0.30870883	     24.43228025	     -6.77951210	     -6.68645376	    -71.12018079	     -0.60085099	      9.76227265	      8.64146834	      9.31156993	      6.67966600	     -3.69192686	    -13.98910575	      9.49422414	     -5.43119104	      4.54729275	     -4.78960670	     -5.48765607	      1.13882762
      1.12950000	     -3.75083967	      3.18425770	     -1.30909201	      0.22583806	      0.91273018	      0.30838345	     24.85857805	     -6.52165287	     -6.88221837	    -70.44202922	     -0.23655334	      9.47774759	      8.40497138	      8.52591626	      6.53632539	     -3.30333797	    -13.33624808	      9.41866534	     -5.68718958	      4.49229801	     -4.91125728	     -5.21815848	      0.75431376
      1.13366667	     -3.71654872	      2.92769023	     -1.16819428	      0.23113089	      0.91357728	      0.30807650	     25.31140025	     -6.21744013	     -7.10680548	    -69.69915201	      0.20577816	      9.20930586	      8.34937132	      7.87145215	      6.31215524	     -3.09944774	    -12.84883042	      9.44825956	     -5.63855850	      4.48023916	     -4.94610364	     -4.87463242	      0.66050144
      1.13783333	     -3.61638264	      2.70700381	     -1.03168266	      0.23642944	      0.91448460	      0.30775677	     25.67851252	     -5.96033492	     -7.32247039	    -68.89730476	      0.53931785	      8.88635294	      8.07079801	      7.08707236	      6.14611651	     -2.74257070	    -12.22614416	      9.39376187	     -5.85192060	      4.41886782	     -5.07136299	     -4.61198940	      0.27680743
      1.14200000	     -3.54182694	      2.45603421	     -0.88927555	      0.24170990	      0.91529155	      0.30745225	     26.04934723	     -5.66888936	     -7.55117457	    -68.02737344	      0.86903768	      8.57064941	      7.95177552	      6.38363516	      5.92270856	     -2.50936622	    -11.71836890	      9.45320052	     -5.83163006	      4.39545439	     -5.16360043	     -4.28791621	      0.12935622
      1.14616667	     -3.45967758	      2.22229321	     -0.74142983	      0.24698320	      0.91604358	      0.30714655	     26.39743392	     -5.40167217	     -7.78196094	    -67.11071216	      1.20119576	      8.23388074	      7.82053673	      5.66859262	      5.71584149	     -2.25892404	    -11.19365443	      9.46553522	     -5.86186507	      4.36942606	     -5.26192651	     -3.99329289	     -0.10537194
      1.15033333	     -3.37985067	      2.00033573	     -0.58896405	      0.25223766	      0.91672756	      0.30683323	     26.73402748	     -5.15203376	     -8.01398641	    -66.14593374	      1.51595407	      7.88682342	      7.66924603	      4.96144795	      5.51811296	     -1.99946203	    -10.67255480	      9.46938379	     -5.91347526	      4.34077971	     -5.36028460	     -3.70975342	     -0.35801297
      1.15450000	     -3.30950000	      1.80553284	     -0.42899082	      0.25747918	      0.91731889	      0.30650173	     27.07147319	     -4.94173047	     -8.24699836	    -65.14925682	      1.85899271	      7.56359641	      7.27790977	      4.25829730	      5.35250729	     -1.69059816	    -10.12829956	      9.40196220	     -6.10433193	      4.26632908	     -5.43437869	     -3.46093114	     -0.70167575
      1.15866667	     -3.22090811	      1.60064018	     -0.27693697	      0.26269957	      0.91787789	      0.30623382	     27.37071867	     -4.70516641	     -8.46547119	    -64.08846154	      2.13341573	      7.16698906	      6.98498078	      3.56334679	      5.15557963	     -1.47935105	     -9.64166786	      9.42454666	     -6.07560424	      4.21464222	     -5.55672831	     -3.21134705	     -0.91573104
      1.16283333	     -3.14523242	      1.39251390	     -0.12276856	      0.26791664	      0.91835248	      0.30594900	     27.66556900	     -4.47427439	     -8.69283673	    -62.97325898	      2.35437633	      6.82050478	      6.85800920	      2.89561371	      4.95062615	     -1.27856100	     -9.18439506	      9.50757091	     -6.04092334	      4.19504447	     -5.64603305	     -2.93973399	     -1.08059195
      1.16700000	     -3.07871553	      1.19997015	      0.04264203	      0.27310876	      0.91874152	      0.30567853	     27.95541780	     -4.26210973	     -8.92290457	    -61.81923083	      2.61925531	      6.45145236	      6.76752397	      2.25647878	      4.75423284	     -1.10290668	     -8.75426012	      9.52860564	     -6.00299173	      4.18168635	     -5.72944510	     -2.69588750	     -1.26374264
      1.17116667	     -2.99335745	      1.06010187	      0.18734405	      0.27829991	      0.91906781	      0.30541710	     28.23002580	     -4.10345984	     -9.11613355	    -60.65310735	      2.80989298	      6.05248979	      6.44440501	      1.54902512	      4.62376028	     -0.82930401	     -8.22052510	      9.51344022	     -6.13048140	      4.13255875	     -5.84036169	     -2.51792285	     -1.65271026
      1.17533333	     -2.92818680	      0.89853945	      0.34609888	      0.28348897	      0.91931550	      0.30515118	     28.49667166	     -3.92767505	     -9.33148249	    -59.42047934	      2.99017718	      5.71890302	      5.70810531	      0.89425931	      4.46000453	     -0.59226744	     -7.75258864	      9.54240959	     -6.21745319	      4.02228269	     -5.91030158	     -2.29920206	     -1.93585572
      1.17950000	     -2.85313810	      0.75378944	      0.48291272	      0.28865507	      0.91949064	      0.30495925	     28.74815785	     -3.74880386	     -9.50653566	    -58.15532432	      3.12084469	      5.30386089	      5.61609486	      0.25489283	      4.29824646	     -0.48052891	     -7.33772663	      9.64279679	     -6.08286759	      4.01230869	     -6.01459267	     -2.11813849	     -2.03359395
      1.18366667	     -2.78518283	      0.62808052	      0.62077214	      0.29382083	      0.91958480	      0.30476879	     28.99419177	     -3.59334446	     -9.67904392	    -56.85686842	      3.23486297	      4.91338770	      5.51051652	     -0.38263443	      4.15698358	     -0.34314174	     -6.90795259	      9.71093850	     -6.01972636	      4.00096310	     -6.10383064	     -1.95525149	     -2.24495484
      1.18783333	     -2.73619299	      0.50589126	      0.76716985	      0.29898341	      0.91959170	      0.30458160	     29.23982316	     -3.44329909	     -9.85412231	    -55.51570490	      3.36412962	      4.54811032	      5.43180675	     -0.98259808	      4.01407268	     -0.21990089	     -6.51147523	      9.75744333	     -5.95961706	      3.99352690	     -6.16525766	     -1.79353227	     -2.43004951
      1.19200000	     -2.67602332	      0.41115250	      0.89265198	      0.30414601	      0.91953218	      0.30443969	     29.46931034	     -3.30981157	     -9.99694929	    -54.15342091	      3.42975118	      4.16845308	      5.34137277	     -1.60927434	      3.89913533	     -0.09560780	     -6.08671872	      9.82713998	     -5.90820999	      3.98605943	     -6.24456911	     -1.66936657	     -2.64987365
      1.19616667	     -2.62918263	      0.33135703	      1.01224866	      0.30931833	      0.91938020	      0.30430722	     29.69958972	     -3.18792235	    -10.12406990	    -52.76365334	      3.48562359	      3.81177373	      5.24804571	     -2.21800833	      3.79881317	      0.01813443	     -5.67239234	      9.89531091	     -5.86017747	      3.97913715	     -6.30624465	     -1.56103166	     -2.86586871
